<svg width="583" height="108" viewBox="0 0 583 108" fill="none" xmlns="http://www.w3.org/2000/svg">
<g clip-path="url(#clip0_4284_3606)">
<path d="M122.398 29H5.22461V79H122.398V29Z" fill="url(#paint0_linear_4284_3606)"/>
<path d="M104.506 63.6555V52.4367C104.506 51.6277 104.214 51.0415 103.635 50.6759C103.054 50.3102 102.332 50.1274 101.465 50.1274C101.041 50.1274 100.637 50.161 100.249 50.2283C99.8619 50.2955 99.5391 50.3775 99.2809 50.4741V63.6555H94.6099V48.5683C95.4387 48.2405 96.4612 47.9673 97.6774 47.7467C98.8956 47.526 100.212 47.4147 101.632 47.4147C104.083 47.4147 105.953 47.8118 107.244 48.6124C108.533 49.4088 109.179 50.6654 109.179 52.3779V63.6555H104.506Z" fill="white"/>
<path d="M63.1404 63.6537V47.6125C64.6981 47.6125 66.2808 47.6987 67.8135 47.8878V63.6516H63.1404V63.6537Z" fill="white"/>
<path d="M68.06 43.3749C68.06 43.9506 67.8059 44.4465 67.2999 44.8605C66.7938 45.2745 66.1816 45.4804 65.461 45.4804C64.7405 45.4804 64.1324 45.2745 63.6368 44.8605C63.1391 44.4465 62.8892 43.9506 62.8892 43.3749C62.8892 42.7991 63.1391 42.3032 63.6368 41.8893C64.1345 41.4753 64.7426 41.2694 65.461 41.2694C66.1795 41.2694 66.7917 41.4753 67.2999 41.8893C67.8059 42.3032 68.06 42.7991 68.06 43.3749Z" fill="white"/>
<path d="M60.2405 50.5582C59.5949 50.346 58.9077 50.2304 58.1809 50.2136C57.4521 50.1947 56.8586 50.2913 56.3983 50.5015V63.6555H51.7273V48.5683C52.5936 48.2027 53.6036 47.919 54.7532 47.7173C55.9048 47.5155 57.3188 47.4147 58.9973 47.4147C59.3659 47.4147 59.7532 47.4231 60.1593 47.4441C60.5654 47.463 60.8861 47.4924 61.1277 47.5302L60.2426 50.5582H60.2405Z" fill="white"/>
<path d="M32.2471 55.1742C32.2471 57.8848 31.4828 59.9966 29.9522 61.5074C28.4215 63.0162 26.2203 63.7705 23.3444 63.7705C21.87 63.7705 20.6122 63.6612 19.571 63.4385C18.5297 63.2179 17.7134 62.9426 17.124 62.6169V40.7216H21.768V48.0781C22.1741 47.9247 22.653 47.7861 23.2049 47.66C23.7588 47.536 24.4315 47.473 25.2228 47.473C26.2558 47.473 27.2054 47.66 28.0717 48.0361C28.938 48.4101 29.6794 48.9355 30.2979 49.6079C30.9143 50.2824 31.3953 51.0893 31.7348 52.0328C32.0763 52.9741 32.2471 54.0227 32.2471 55.1763M27.4907 55.4368C27.4907 54.6678 27.4261 53.9512 27.297 53.2872C27.1679 52.6232 26.9576 52.0475 26.6618 51.5558C26.3661 51.0662 25.9934 50.6858 25.5415 50.4169C25.0896 50.1479 24.5314 50.0134 23.8692 50.0134C23.0029 50.0134 22.3032 50.1395 21.768 50.3896V60.8035C21.97 60.9002 22.2199 60.9758 22.5135 61.0346C22.8092 61.0914 23.1674 61.1208 23.5922 61.1208C24.9021 61.1208 25.8767 60.6018 26.5223 59.5637C27.1679 58.5257 27.4886 57.1494 27.4886 55.4389" fill="white"/>
<path d="M49.1677 63.6536C49.1677 63.6536 41.8269 63.765 41.1626 63.765C40.0964 63.765 39.1176 63.5843 38.22 63.2249C37.3246 62.8635 36.552 62.3529 35.9085 61.6889C35.265 61.027 34.7589 60.2222 34.3966 59.2766C34.0321 58.331 33.8489 57.2636 33.8489 56.0743C33.8489 54.7673 34.0363 53.5843 34.4111 52.521C34.7839 51.4599 35.3504 50.5458 36.1063 49.7872C36.8643 49.0266 37.8077 48.4424 38.9385 48.0306C40.0672 47.6229 41.3896 47.417 42.9036 47.417C44.2301 47.417 45.4546 47.5284 46.575 47.7532C47.6954 47.978 48.5554 48.1482 49.1719 48.4802V63.6536H49.1677ZM44.4696 50.3714C44.2634 50.2726 44.0114 50.1865 43.7136 50.1066C43.4158 50.0289 43.0493 49.989 42.6203 49.989C41.2938 49.989 40.3025 50.487 39.6486 51.4809C38.9947 52.4769 38.6678 53.9289 38.6678 55.8389C38.6678 59.4657 39.9485 61.277 42.5079 61.277C42.8827 61.277 43.2451 61.2434 43.6012 61.1741C43.9573 61.1068 44.2468 61.0123 44.4696 60.8967V50.3693V50.3714Z" fill="white"/>
<path d="M81.5222 66.8931C87.5823 66.7481 92.3783 61.7148 92.2346 55.6498C92.1846 53.5523 91.5494 51.6078 90.4915 49.9657C88.3841 49.9375 86.2641 50.548 85.4748 50.7596C86.9242 51.9463 87.8655 53.7336 87.9134 55.7526C87.9801 58.5493 86.3141 60.9833 83.8963 62.0271C83.6381 61.4266 83.5423 61.201 83.2882 60.6146C80.9225 62.0009 77.4822 63.5463 73.5359 63.7156C75.5809 65.7426 78.4152 66.9657 81.5222 66.8911" fill="white"/>
<path d="M80.9955 44.9298C74.9334 45.0749 70.1395 50.1082 70.2832 56.1711C70.3332 58.2687 70.9662 60.2131 72.0262 61.8553C74.1337 61.8855 76.2537 61.2709 77.0429 61.0634C75.5956 59.8766 74.6522 58.0893 74.6064 56.0704C74.5398 53.2736 76.2058 50.8396 78.6236 49.7959C78.8797 50.3983 78.9776 50.622 79.2316 51.2083C81.5953 49.8221 85.0376 48.2766 88.984 48.1073C86.9389 46.0823 84.1026 44.8573 80.9976 44.9318" fill="white"/>
</g>
<path d="M191.696 34.2496H169.092V74.1489H191.696V34.2496Z" fill="#F16522"/>
<path d="M170.531 54.2018C170.531 46.1076 174.388 38.8991 180.398 34.2522C176.004 30.8547 170.46 28.8279 164.433 28.8279C150.169 28.8279 138.602 40.1875 138.602 54.204C138.602 68.2205 150.166 79.5801 164.433 79.5801C170.46 79.5801 176.004 77.5533 180.398 74.1558C174.391 69.5089 170.531 62.3003 170.531 54.2061" fill="#E41B24"/>
<path d="M222.194 54.1996C222.194 68.214 210.629 79.5757 196.362 79.5757C190.335 79.5757 184.791 77.5489 180.398 74.1515C186.407 69.5046 190.265 62.296 190.265 54.2018C190.265 46.1076 186.407 38.8991 180.398 34.2522C184.791 30.8547 190.335 28.8279 196.362 28.8279C210.627 28.8279 222.194 40.1875 222.194 54.204" fill="#F89E1C"/>
<path d="M277.192 38.6643L263.17 70.3172H254.022L247.121 45.0561C246.703 43.5016 246.338 42.9298 245.064 42.2746C242.984 41.2061 239.549 40.2039 236.528 39.583L236.731 38.6643H251.458C253.334 38.6643 255.022 39.8463 255.45 41.8913L259.094 60.208L268.101 38.6622H277.194L277.192 38.6643ZM313.036 59.9832C313.072 51.63 300.824 51.1696 300.91 47.4373C300.937 46.3024 302.078 45.0947 304.581 44.7863C305.821 44.6322 309.239 44.5144 313.113 46.2017L314.634 39.4909C312.552 38.7757 309.872 38.0862 306.539 38.0862C297.984 38.0862 291.964 42.3902 291.914 48.5508C291.857 53.1075 296.21 55.6492 299.489 57.1631C302.861 58.7155 303.993 59.7113 303.981 61.0988C303.956 63.223 301.29 64.1588 298.801 64.1952C294.451 64.2594 291.925 63.0817 289.913 62.1973L288.345 69.1309C290.366 70.0088 294.098 70.7733 297.968 70.8118C307.061 70.8118 313.009 66.5634 313.036 59.9811M335.625 70.315H343.63L336.641 38.6622H329.254C327.593 38.6622 326.19 39.5765 325.572 40.9834L312.586 70.315H321.672L323.476 65.587H334.579L335.625 70.315ZM325.968 59.101L330.524 47.2146L333.144 59.101H325.968ZM289.556 38.6622L282.4 70.315H273.745L280.904 38.6622H289.556Z" fill="white"/>
<path d="M442.88 77.8268V79.6255H381.701V77.8268H442.88ZM459.077 61.6298V45.8027C459.077 36.8585 451.824 29.6057 442.88 29.6057H381.701C372.757 29.6057 365.504 36.8585 365.504 45.8027V61.6298C365.504 70.574 372.757 77.8268 381.701 77.8268V79.6255L380.773 79.6031C371.266 79.1209 363.706 71.2571 363.706 61.6298V45.8027C363.706 36.1755 371.266 28.3117 380.773 27.8295L381.701 27.8071H442.88C452.818 27.8071 460.875 35.8647 460.875 45.8027V61.6298C460.875 71.2571 453.315 79.1209 443.808 79.6031L442.88 79.6255V77.8268C451.824 77.8268 459.077 70.574 459.077 61.6298Z" fill="white"/>
<path d="M392.791 44.1563C393.558 43.2132 394.077 41.945 393.942 40.6449C392.824 40.6982 391.452 41.3749 390.663 42.318C389.95 43.1279 389.323 44.4493 389.486 45.6908C390.744 45.7974 392.003 45.0728 392.791 44.151" fill="white"/>
<path d="M393.924 45.9356C392.098 45.829 390.543 46.9586 389.673 46.9586C388.804 46.9586 387.464 45.9888 386.022 46.0155C384.142 46.0421 382.398 47.0918 381.442 48.7596C379.481 52.0951 380.923 57.0452 382.83 59.768C383.759 61.1107 384.871 62.592 386.346 62.5387C387.734 62.4854 388.28 61.6489 389.97 61.6489C391.661 61.6489 392.152 62.5387 393.622 62.5121C395.15 62.4854 396.101 61.164 397.03 59.8212C398.094 58.2867 398.526 56.8107 398.558 56.7255C398.531 56.6988 395.615 55.5959 395.588 52.287C395.561 49.5162 397.878 48.2001 397.986 48.1149C396.679 46.2073 394.632 45.9888 393.924 45.9356Z" fill="white"/>
<path d="M409.825 42.1843C413.795 42.1843 416.56 44.8858 416.56 48.8128C416.56 52.7398 413.741 55.4732 409.728 55.4732H405.331V62.3681H402.155V42.1843H409.825ZM405.331 52.8464H408.977C411.742 52.8464 413.314 51.3757 413.314 48.8341C413.314 46.2925 411.742 44.8325 408.988 44.8325H405.331V52.8464Z" fill="white"/>
<path d="M417.396 58.1907C417.396 55.6171 419.395 54.0345 422.943 53.8374L427.027 53.5976V52.4627C427.027 50.8269 425.909 49.8465 424.034 49.8465C422.263 49.8465 421.156 50.683 420.886 51.9991H417.99C418.158 49.3403 420.459 47.3848 424.142 47.3848C427.826 47.3848 430.068 49.271 430.068 52.2229V62.3628H427.135V59.9437H427.065C426.2 61.5795 424.315 62.6132 422.355 62.6132C419.433 62.6132 417.391 60.8229 417.391 58.18L417.396 58.1907ZM427.027 56.8639V55.7023L423.354 55.9261C421.523 56.054 420.491 56.8479 420.491 58.1107C420.491 59.3736 421.571 60.2367 423.213 60.2367C425.352 60.2367 427.027 58.7821 427.027 56.8639Z" fill="white"/>
<path d="M432.842 67.7854V65.3397C433.069 65.3929 433.577 65.3929 433.836 65.3929C435.256 65.3929 436.018 64.8068 436.488 63.2936C436.488 63.2669 436.758 62.3984 436.758 62.3824L431.367 47.6495H434.684L438.454 59.6223H438.508L442.278 47.6495H445.513L439.928 63.1337C438.654 66.7037 437.179 67.8493 434.084 67.8493C433.83 67.8493 433.063 67.8227 432.837 67.78L432.842 67.7854Z" fill="white"/>
<g clip-path="url(#clip1_4284_3606)">
<path d="M550.966 27.3606H504.644C490.168 27.3606 478.324 39.1247 478.324 53.503C478.324 67.8813 490.168 79.6454 504.644 79.6454H550.966C565.442 79.6454 577.285 67.8813 577.285 53.503C577.285 39.1247 565.442 27.3606 550.966 27.3606Z" fill="white"/>
<path d="M550.966 29.4781C554.216 29.4781 557.375 30.1186 560.349 31.3735C563.231 32.5891 565.81 34.3275 568.047 36.5366C570.271 38.7456 572.021 41.3206 573.245 44.1832C574.509 47.1373 575.153 50.2744 575.153 53.503C575.153 56.7316 574.509 59.8687 573.245 62.8228C572.021 65.6854 570.271 68.2473 568.047 70.4694C565.823 72.6784 563.231 74.4169 560.349 75.6325C557.375 76.8874 554.216 77.5279 550.966 77.5279H504.644C501.393 77.5279 498.235 76.8874 495.261 75.6325C492.379 74.4169 489.8 72.6784 487.563 70.4694C485.339 68.2604 483.588 65.6854 482.364 62.8228C481.101 59.8687 480.456 56.7316 480.456 53.503C480.456 50.2744 481.101 47.1373 482.364 44.1832C483.588 41.3206 485.339 38.7587 487.563 36.5366C489.787 34.3275 492.379 32.5891 495.261 31.3735C498.235 30.1186 501.393 29.4781 504.644 29.4781H550.966ZM550.966 27.3606H504.644C490.168 27.3606 478.324 39.1247 478.324 53.503C478.324 67.8813 490.168 79.6454 504.644 79.6454H550.966C565.442 79.6454 577.285 67.8813 577.285 53.503C577.285 39.1247 565.442 27.3606 550.966 27.3606Z" fill="#3C4043"/>
<path d="M525.621 55.3592V63.2673H523.095V43.7389H529.793C531.491 43.7389 532.938 44.301 534.123 45.4251C535.333 46.5492 535.939 47.9217 535.939 49.5425C535.939 51.2026 535.333 52.575 534.123 53.6861C532.951 54.7971 531.504 55.3461 529.793 55.3461H525.621V55.3592ZM525.621 46.144V52.9541H529.846C530.846 52.9541 531.688 52.6142 532.346 51.9476C533.017 51.281 533.359 50.4706 533.359 49.5556C533.359 48.6537 533.017 47.8563 532.346 47.1897C531.688 46.4969 530.859 46.1571 529.846 46.1571H525.621V46.144Z" fill="#3C4043"/>
<path d="M542.545 49.464C544.413 49.464 545.887 49.9607 546.966 50.9541C548.046 51.9475 548.585 53.3069 548.585 55.0323V63.2672H546.177V61.4111H546.072C545.032 62.9404 543.637 63.6985 541.9 63.6985C540.413 63.6985 539.176 63.2672 538.176 62.3914C537.176 61.5156 536.676 60.4307 536.676 59.1236C536.676 57.7381 537.202 56.6401 538.255 55.8297C539.307 55.0062 540.716 54.601 542.466 54.601C543.966 54.601 545.203 54.8755 546.164 55.4245V54.8493C546.164 53.9736 545.822 53.2416 545.124 52.6272C544.427 52.0129 543.611 51.7122 542.676 51.7122C541.268 51.7122 540.15 52.3004 539.334 53.4899L537.11 52.1044C538.334 50.3398 540.15 49.464 542.545 49.464ZM539.281 59.1628C539.281 59.8164 539.558 60.3654 540.123 60.7967C540.676 61.2281 541.334 61.4503 542.084 61.4503C543.15 61.4503 544.098 61.0581 544.927 60.2739C545.756 59.4896 546.177 58.5746 546.177 57.5159C545.387 56.9015 544.295 56.5878 542.887 56.5878C541.86 56.5878 541.005 56.8362 540.321 57.3198C539.623 57.8296 539.281 58.4439 539.281 59.1628Z" fill="#3C4043"/>
<path d="M562.324 49.8956L553.902 69.1364H551.296L554.428 62.4048L548.875 49.8956H551.625L555.626 59.4899H555.678L559.574 49.8956H562.324Z" fill="#3C4043"/>
<path d="M515.571 53.7649C515.571 52.9466 515.498 52.1637 515.361 51.4108H504.77V55.7243L510.869 55.7256C510.622 57.1608 509.826 58.3843 508.606 59.1999V61.9984H512.237C514.357 60.0495 515.571 57.1686 515.571 53.7649Z" fill="#4285F4"/>
<path d="M508.607 59.1997C507.596 59.8768 506.295 60.2729 504.772 60.2729C501.831 60.2729 499.336 58.3043 498.443 55.6509H494.697V58.537C496.553 62.1943 500.366 64.704 504.772 64.704C507.817 64.704 510.376 63.7093 512.238 61.997L508.607 59.1997Z" fill="#34A853"/>
<path d="M498.09 53.5102C498.09 52.7651 498.215 52.0449 498.443 51.3678V48.4817H494.697C493.93 49.994 493.499 51.7011 493.499 53.5102C493.499 55.3192 493.931 57.0263 494.697 58.5387L498.443 55.6526C498.215 54.9755 498.09 54.2552 498.09 53.5102Z" fill="#FABB05"/>
<path d="M504.772 46.7455C506.434 46.7455 507.923 47.3141 509.098 48.4251L512.315 45.2318C510.361 43.4241 507.814 42.3143 504.772 42.3143C500.368 42.3143 496.553 44.824 494.697 48.4813L498.443 51.3674C499.336 48.714 501.831 46.7455 504.772 46.7455Z" fill="#E94235"/>
</g>
<defs>
<linearGradient id="paint0_linear_4284_3606" x1="78.2684" y1="5.6484" x2="80.235" y2="108.091" gradientUnits="userSpaceOnUse">
<stop stop-color="#007FDB"/>
<stop offset="0.515625" stop-color="#0097DB"/>
<stop offset="1" stop-color="#99D5F1"/>
</linearGradient>
<clipPath id="clip0_4284_3606">
<rect x="5.22461" y="29" width="117.174" height="50" rx="8" fill="white"/>
</clipPath>
<clipPath id="clip1_4284_3606">
<rect width="98.9609" height="56.0778" fill="white" transform="translate(478.324 25.9611)"/>
</clipPath>
</defs>
</svg>
